<svg xmlns="http://www.w3.org/2000/svg" xmlns:xlink="http://www.w3.org/1999/xlink" viewBox="0 0 734.47 399.97"><defs><style>.cls-1{fill:#5d130f;}.cls-2{fill:#8a1913;}.cls-3{fill:#c1181a;}.cls-3,.cls-6,.cls-7,.cls-8,.cls-9{stroke:#671410;}.cls-15,.cls-17,.cls-18,.cls-19,.cls-3,.cls-6,.cls-7,.cls-8,.cls-9{stroke-miterlimit:10;}.cls-4{fill:#434243;}.cls-5{fill:#b1b0b0;}.cls-6{fill:url(#linear-gradient);}.cls-7{fill:url(#linear-gradient-2);}.cls-8{fill:url(#linear-gradient-3);}.cls-9{fill:url(#linear-gradient-4);}.cls-10{fill:#8b1913;}.cls-11{fill:#444141;}.cls-12{fill:#afafaf;}.cls-13{fill:#b3b3b2;}.cls-14{fill:#dcdddc;}.cls-15{fill:#46af60;stroke:#182718;}.cls-16{fill:#5a1412;}.cls-17{fill:#7bff7b;}.cls-17,.cls-18,.cls-19{stroke:#d4fce4;stroke-width:6px;}.cls-18{fill:#7dd1ff;}.cls-19{fill:#ffdd7d;}</style><linearGradient id="linear-gradient" x1="304.32" y1="345.6" x2="304.32" y2="401.5" gradientTransform="matrix(1, 0, 0, -1, 0, 402)" gradientUnits="userSpaceOnUse"><stop offset="0" stop-color="#72160f"/><stop offset="0.52" stop-color="#c1181a"/><stop offset="1" stop-color="#6d1510"/></linearGradient><linearGradient id="linear-gradient-2" x1="27.73" y1="345.61" x2="27.73" y2="401.5" xlink:href="#linear-gradient"/><linearGradient id="linear-gradient-3" x1="201.44" y1="345.61" x2="201.44" y2="401.5" xlink:href="#linear-gradient"/><linearGradient id="linear-gradient-4" x1="545.56" y1="345.61" x2="545.56" y2="401.5" xlink:href="#linear-gradient"/></defs><g id="Layer_2" data-name="Layer 2"><g id="Capa_1" data-name="Capa 1"><path class="cls-1" d="M2.84,3.52A2.84,2.84,0,0,0,0,6.33v331.2C0,391.22,24.71,400,62.44,400H597.07V3.52Zm196.41,313.7v-211H545.56v211Z"/><path class="cls-2" d="M9.65,56.39H148.84V388.46H47.69a38,38,0,0,1-38-38v-294Z"/><path class="cls-3" d="M148.84,56.39V388.45H597.07V56.39Zm50.41,260.83v-211H545.56v211Z"/><path class="cls-4" d="M561.74,77.76H183.09A11.23,11.23,0,0,0,171.86,89h0V347.91A19.17,19.17,0,0,0,191,367.08H553.78A19.17,19.17,0,0,0,573,347.92h0V89a11.23,11.23,0,0,0-11.22-11.24ZM545.56,317.22H199.25v-211H545.56Z"/><path class="cls-5" d="M546.39,99.44H197.89c-2.88,0-5.21,2.62-5.21,5.86V343.91c0,3.24,2.33,5.87,5.21,5.87h348.5c2.87,0,5.2-2.63,5.2-5.87V105.33C551.59,102.06,549.26,99.44,546.39,99.44Zm-.83,244.16H199.25V106.22H545.56Z"/><path class="cls-6" d="M13.12.5H597.19A1.81,1.81,0,0,1,599,2.29h0V54.18a2.21,2.21,0,0,1-2.22,2.22H9.65V4A3.46,3.46,0,0,1,13.07.5Z"/><path class="cls-7" d="M12.42.5h33.4V56.39H9.65V3.27A2.77,2.77,0,0,1,12.42.5Z"/><rect class="cls-8" x="171.85" y="0.5" width="59.18" height="55.89"/><rect class="cls-9" x="515.97" y="0.5" width="59.18" height="55.89"/><path class="cls-10" d="M649.13,222.43H597.07V400h52.06c83.84-8.22,85.34-93.15,85.34-93.15C731.32,220,649.13,222.43,649.13,222.43Z"/><path class="cls-11" d="M640.88,241.9H597.07V368.46h43.81c79.21,1.92,71.81-66.4,71.81-66.4C710.05,240.14,640.88,241.9,640.88,241.9Z"/><path class="cls-12" d="M669.28,345.19l-3.14,3.14a4,4,0,0,1-2.88,1.2H641.51a3.93,3.93,0,0,1-3.92-3.92V270.06a5.19,5.19,0,0,1,5.17-5.17h27Z"/><path class="cls-13" d="M692.8,322.47l3.27-3a3.66,3.66,0,0,0,1.24-2.71V296.39a3.9,3.9,0,0,0-4-3.69h-78a5.11,5.11,0,0,0-5.33,4.87V317.4a5.6,5.6,0,0,0,5.71,5.51h0Z"/><path class="cls-14" d="M694.89,292.43H669.4V267a2,2,0,0,0-2-2.06H644.88a2,2,0,0,0-2,2.06v25.48H617.35a2,2,0,0,0-2.06,2V316.9a2.05,2.05,0,0,0,2.05,2.05h25.49v25.49a2.06,2.06,0,0,0,2,2H667.3a2.06,2.06,0,0,0,2-2V319h25.49a2.06,2.06,0,0,0,2-2.05V294.48A2.05,2.05,0,0,0,694.89,292.43Z"/><circle class="cls-5" cx="654.97" cy="305.19" r="11.22"/><path class="cls-5" d="M656.73,272.22l-8.43,8.41a.2.2,0,0,0,0,.28.18.18,0,0,0,.12,0H665.3a.19.19,0,0,0,.19-.19.2.2,0,0,0-.06-.14L657,272.22A.21.21,0,0,0,656.73,272.22Z"/><path class="cls-5" d="M655.43,339.71l-8.43-8.4a.19.19,0,0,1,0-.28.2.2,0,0,1,.14-.06H664a.2.2,0,0,1,.2.2.2.2,0,0,1-.06.14l-8.43,8.4a.19.19,0,0,1-.27,0Z"/><path class="cls-5" d="M689.82,305.58l-8.4-8.43a.19.19,0,0,0-.27,0,.2.2,0,0,0-.06.15v16.85a.18.18,0,0,0,.18.2.17.17,0,0,0,.15-.06l8.4-8.42a.19.19,0,0,0,0-.27Z"/><path class="cls-5" d="M623.36,305.06l8.4-8.43a.19.19,0,0,1,.28,0,.2.2,0,0,1,.06.14v16.85a.2.2,0,0,1-.2.2.2.2,0,0,1-.14-.06l-8.4-8.43A.2.2,0,0,1,623.36,305.06Z"/><path class="cls-15" d="M8.89,110.85H33.6v-23H13.78a4.3,4.3,0,0,0-2.13.57l-2,1.15a2.24,2.24,0,0,0-1.14,1.92v19a.36.36,0,0,0,.36.36Z"/><path class="cls-15" d="M8.89,144.27H33.6v-23H13.78a4.3,4.3,0,0,0-2.13.57l-2,1.15a2.24,2.24,0,0,0-1.14,1.93v19a.36.36,0,0,0,.37.35Z"/><path class="cls-16" d="M591.42,228.79h5.65V388.45h-8.56V231.7A2.91,2.91,0,0,1,591.42,228.79Z"/><rect class="cls-4" x="192.12" y="93.69" width="368.23" height="262.43"/></g></g></svg>